HIERARCHY
ROOT Hips
{
	OFFSET 0.000000 8.830580 0.000000
	CHANNELS 6 Xposition Yposition Zposition Zrotation Yrotation Xrotation 
	JOINT Spine
	{
		OFFSET 0.000000 0.010000 0.000000
		CHANNELS 3 Zrotation Yrotation Xrotation
		JOINT Spine1
		{
			OFFSET 0.000000 2.459130 0.000000
			CHANNELS 3 Zrotation Yrotation Xrotation
			JOINT Neck
			{
				OFFSET 0.000000 2.484630 0.000000
				CHANNELS 3 Zrotation Yrotation Xrotation
				JOINT Head_virtual
				{
					OFFSET 0.000000 0.000000 0.000000
					CHANNELS 3 Zrotation Yrotation Xrotation
					JOINT Head
					{
						OFFSET 0.000000 0.927525 0.000000
						CHANNELS 3 Zrotation Yrotation Xrotation
						End Site
						{
							OFFSET 0.000000 0.000000 0.000000
						}
					}
				}
				JOINT LeftUpArm_virtual
				{
					OFFSET 0.000000 0.000000 0.000000
					CHANNELS 3 Zrotation Yrotation Xrotation
					JOINT LeftUpArm
					{
						OFFSET 1.248820 0.000000 0.000000
						CHANNELS 3 Zrotation Yrotation Xrotation
						JOINT LeftForeArm
						{
							OFFSET 2.597580 0.000000 0.000000
							CHANNELS 3 Zrotation Yrotation Xrotation
							JOINT LeftHand
							{
								OFFSET 2.455420 0.000000 0.000000
								CHANNELS 3 Zrotation Yrotation Xrotation
								End Site
								{
									OFFSET 0.000000 0.000000 0.000000
								}
							}
						}
					}
				}
				JOINT RightUpArm_virtual
				{
					OFFSET -0.000000 -0.000000 -0.000000
					CHANNELS 3 Zrotation Yrotation Xrotation
					JOINT RightUpArm
					{
						OFFSET -1.248820 -0.000000 -0.000000
						CHANNELS 3 Zrotation Yrotation Xrotation
						JOINT RightForeArm
						{
							OFFSET -2.597580 -0.000000 -0.000000
							CHANNELS 3 Zrotation Yrotation Xrotation
							JOINT RightHand
							{
								OFFSET -2.455420 -0.000000 -0.000000
								CHANNELS 3 Zrotation Yrotation Xrotation
								End Site
								{
									OFFSET 0.000000 0.000000 0.000000
								}
							}
						}
					}
				}
			}
		}
	}
	JOINT LeftUpLeg
	{
		OFFSET 1.271939 0.000000 0.000000
		CHANNELS 3 Zrotation Yrotation Xrotation
		JOINT LeftLowLeg
		{
			OFFSET 0.000000 -4.342910 0.000000
			CHANNELS 3 Zrotation Yrotation Xrotation
			JOINT LeftFoot
			{
				OFFSET 0.000000 -4.487670 0.000000
				CHANNELS 3 Zrotation Yrotation Xrotation
				JOINT LeftToeBase
				{
					OFFSET 0.000000 0.000000 1.515070
					CHANNELS 3 Zrotation Yrotation Xrotation
					End Site
					{
						OFFSET 0.000000 0.000000 0.000000
					}
				}
			}
		}
	}
	JOINT RightUpLeg
	{
		OFFSET -1.271939 0.000000 0.000000
		CHANNELS 3 Zrotation Yrotation Xrotation
		JOINT RightLowLeg
		{
			OFFSET 0.000000 -4.342910 0.000000
			CHANNELS 3 Zrotation Yrotation Xrotation
			JOINT RightFoot
			{
				OFFSET 0.000000 -4.487670 0.000000
				CHANNELS 3 Zrotation Yrotation Xrotation
				JOINT RightToeBase
				{
					OFFSET 0.000000 0.000000 1.515070
					CHANNELS 3 Zrotation Yrotation Xrotation
					End Site
					{
						OFFSET 0.000000 0.000000 0.000000
					}
				}
			}
		}
	}
}
MOTION
Frames: 7
Frame Time: 0.041667
-14.172020 8.870815 37.221834 178.759029 2.981220 -177.524907 2.314818 1.956044 -22.170905 -5.755976 3.851757 17.174795 0.000000 0.000000 0.000000 13.303775 3.487527 19.581768 -8.705794 -6.472638 -82.857521 -26.865499 2.963540 7.010010 -44.831200 -7.270570 21.476601 0.000000 -20.127100 0.000000 4.943330 17.537701 -10.767200 31.706600 -6.371800 2.713013 47.183498 2.543720 12.324200 0.000000 20.002001 0.000000 6.116250 -9.036840 -20.979601 -2.287885 -12.615074 -5.004806 0.000000 0.000000 15.895600 -18.415615 10.382745 -8.206784 0.000000 0.000000 -15.699063 1.834981 16.317585 -6.140634 0.000000 0.000000 21.027000 32.815234 -5.736729 -14.978660 0.000000 0.000000 -13.152770 
-14.173477 8.870528 37.224939 178.755847 3.078224 -177.605805 2.313576 1.949607 -22.084456 -5.736711 3.857351 17.224334 0.000000 0.000000 0.000000 13.222187 3.543761 19.437990 -8.721560 -6.493486 -82.868450 -26.891800 3.014550 6.950989 -44.841999 -7.216730 21.281099 0.000000 -20.251200 0.000000 5.056680 17.369499 -11.166100 31.727400 -6.394900 2.766998 47.150600 2.557900 12.265500 0.000000 20.139999 0.000000 5.985560 -8.934600 -21.154800 -2.320912 -12.552638 -4.948243 0.000000 0.000000 15.930300 -18.400764 10.423088 -8.224837 0.000000 0.000000 -15.702003 1.839012 16.470602 -6.125000 0.000000 0.000000 21.098101 33.053627 -5.662488 -14.995175 0.000000 0.000000 -13.249880 
-14.175238 8.870442 37.230888 178.747554 3.206009 -177.660078 2.312011 1.955656 -21.917728 -5.714454 3.857034 17.194554 0.000000 0.000000 0.000000 13.081552 3.676130 19.147613 -8.693706 -6.515360 -82.960001 -26.921301 3.053320 6.906006 -44.872700 -7.145150 21.029800 0.000000 -20.345501 0.000000 5.131920 17.372601 -11.004900 31.724600 -6.401510 2.725006 47.166302 2.487580 12.125000 0.000000 20.212200 0.000000 5.887340 -8.786860 -21.162701 -2.351601 -12.454929 -4.928525 0.000000 0.000000 15.953700 -18.384068 10.461406 -8.221382 0.000000 0.000000 -15.704720 1.815515 16.611027 -6.185689 0.000000 0.000000 21.228201 32.863289 -5.775566 -15.016006 0.000000 0.000000 -13.112940 
-14.176894 8.870500 37.236568 178.732501 3.299752 -177.595581 2.295722 1.927699 -21.852402 -5.671711 3.854497 17.157409 0.000000 0.000000 0.000000 12.893319 3.868229 18.738218 -8.665108 -6.526197 -83.087262 -26.922899 3.097600 6.960999 -44.937599 -7.147460 20.802000 0.000000 -20.392799 0.000000 5.008430 17.392900 -11.543300 31.697800 -6.389110 2.739990 47.194000 2.433800 11.980200 0.000000 20.293699 0.000000 5.996000 -9.033910 -21.417200 -2.359863 -12.409011 -5.014383 0.000000 0.000000 15.937500 -18.392386 10.505423 -8.212080 0.000000 0.000000 -15.687301 1.753646 16.704546 -6.344521 0.000000 0.000000 21.304001 33.061092 -5.668809 -14.989313 0.000000 0.000000 -13.247820 
-14.179099 8.870959 37.243633 178.736360 3.411858 -177.505075 2.307184 1.964241 -21.740324 -5.651208 3.852619 17.031459 0.000000 0.000000 0.000000 12.794525 3.919108 18.315364 -8.683597 -6.525782 -83.222981 -26.923500 3.036500 7.026001 -45.001202 -7.070980 20.589300 0.000000 -20.361799 0.000000 5.004920 17.463200 -11.397000 31.666000 -6.379700 2.756012 47.264500 2.350400 11.833600 0.000000 20.211100 0.000000 5.951380 -8.876980 -21.328100 -2.345226 -12.296665 -5.124337 0.000000 0.000000 15.899700 -18.378314 10.521309 -8.172214 0.000000 0.000000 -15.692921 1.688975 16.680267 -6.517930 0.000000 0.000000 21.324600 33.085858 -5.548607 -14.889566 0.000000 0.000000 -13.252300 
-14.181178 8.871234 37.249538 178.745281 3.469650 -177.425665 2.331417 1.968876 -21.664937 -5.656830 3.817026 16.961260 0.000000 0.000000 0.000000 12.654846 4.077557 17.998368 -8.633392 -6.534793 -83.382957 -26.902100 3.038310 7.062988 -45.087002 -7.089090 20.395000 0.000000 -20.250700 0.000000 4.820060 17.500601 -11.997600 31.681101 -6.368710 2.800995 47.243401 2.358960 11.754700 0.000000 20.180500 0.000000 6.161410 -9.093270 -21.584700 -2.326239 -12.244575 -5.229413 0.000000 0.000000 15.880500 -18.397058 10.521827 -8.155950 0.000000 0.000000 -15.694963 1.642434 16.688509 -6.659184 0.000000 0.000000 21.341400 33.040527 -5.545219 -14.828272 0.000000 0.000000 -13.274820 
-14.183599 8.870647 37.255616 178.725260 3.463547 -177.282931 2.377231 1.983587 -21.243346 -5.876968 3.573608 16.165792 0.000000 0.000000 0.000000 12.508630 4.453563 18.150842 -8.658833 -6.562018 -83.819758 -26.915701 3.276110 7.386993 -45.023499 -7.100270 20.105600 0.000000 -20.090401 0.000000 4.642990 17.548500 -12.454200 31.879000 -6.384290 3.274994 47.056499 2.401300 11.629700 0.000000 20.092800 0.000000 6.340390 -9.108230 -22.116800 -2.320250 -12.254241 -5.409805 0.000000 0.000000 15.862700 -18.353518 10.554052 -8.123941 0.000000 0.000000 -15.705389 1.564315 17.015592 -6.897519 0.000000 0.000000 21.461500 33.174141 -5.723387 -14.988557 0.000000 0.000000 -13.301960 
